<svg width="32" height="32" viewBox="0 0 32 32" fill="none" xmlns="http://www.w3.org/2000/svg">
<path d="M20 30.3333H12C4.75999 30.3333 1.66666 27.24 1.66666 20V12C1.66666 4.76 4.75999 1.66666 12 1.66666H20C27.24 1.66666 30.3333 4.76 30.3333 12V20C30.3333 27.24 27.24 30.3333 20 30.3333ZM12 3.66666C5.85332 3.66666 3.66666 5.85333 3.66666 12V20C3.66666 26.1467 5.85332 28.3333 12 28.3333H20C26.1467 28.3333 28.3333 26.1467 28.3333 20V12C28.3333 5.85333 26.1467 3.66666 20 3.66666H12Z" fill="#25B0A9"/>
<path d="M9.77347 20.32C9.56014 20.32 9.34681 20.2533 9.16014 20.1067C8.72014 19.7733 8.64014 19.1467 8.97347 18.7067L12.1468 14.5867C12.5335 14.0933 13.0801 13.7733 13.7068 13.6933C14.3201 13.6133 14.9468 13.7867 15.4401 14.1733L17.8801 16.0933C17.9735 16.1733 18.0668 16.1733 18.1335 16.16C18.1868 16.16 18.2801 16.1333 18.3601 16.0267L21.4401 12.0533C21.7735 11.6133 22.4135 11.5333 22.8401 11.88C23.2801 12.2133 23.3601 12.84 23.0135 13.28L19.9335 17.2533C19.5468 17.7467 19.0001 18.0667 18.3735 18.1333C17.7468 18.2133 17.1335 18.04 16.6401 17.6533L14.2001 15.7333C14.1068 15.6533 14.0001 15.6533 13.9468 15.6667C13.8935 15.6667 13.8001 15.6933 13.7201 15.8L10.5468 19.92C10.3735 20.1867 10.0801 20.32 9.77347 20.32Z" fill="#25B0A9"/>
</svg>
