<svg width="24" height="24" viewBox="0 0 24 24" fill="none" xmlns="http://www.w3.org/2000/svg">
<g id="kebab menu">
<path id="Vector" d="M12.5 8.5C13.6046 8.5 14.5 7.60457 14.5 6.5C14.5 5.39543 13.6046 4.5 12.5 4.5C11.3954 4.5 10.5 5.39543 10.5 6.5C10.5 7.60457 11.3954 8.5 12.5 8.5Z" fill="#444444"/>
<path id="Vector_2" d="M12.5 14.5C13.6046 14.5 14.5 13.6046 14.5 12.5C14.5 11.3954 13.6046 10.5 12.5 10.5C11.3954 10.5 10.5 11.3954 10.5 12.5C10.5 13.6046 11.3954 14.5 12.5 14.5Z" fill="#444444"/>
<path id="Vector_3" d="M12.5 20.5C13.6046 20.5 14.5 19.6046 14.5 18.5C14.5 17.3954 13.6046 16.5 12.5 16.5C11.3954 16.5 10.5 17.3954 10.5 18.5C10.5 19.6046 11.3954 20.5 12.5 20.5Z" fill="#444444"/>
</g>
</svg>
