<svg width="120" height="169" viewBox="0 0 120 169" fill="none" xmlns="http://www.w3.org/2000/svg">
<rect x="21" y="11" width="87" height="115" rx="6" fill="#DEE9FF"/>
<path d="M68 1.5V26C68 29.3137 70.6863 32 74 32H100.38" stroke="#68BA7F" stroke-width="2" stroke-linecap="round" stroke-linejoin="round"/>
<path d="M12 11.5V7C12 3.68629 14.6863 1 18 1H66.0973C67.6396 1 69.1226 1.59387 70.2386 2.65835L99.1413 30.2271C100.328 31.3593 101 32.9282 101 34.5687V112C101 115.314 98.3137 118 95 118H18C14.6863 118 12 115.314 12 112V98M12 16V34.5M12 39V46.5M12 51.5V88M12 91.5V96" stroke="#68BA7F" stroke-width="2" stroke-linecap="round" stroke-linejoin="round"/>
<path d="M40.5 74C46 68.3333 60.2 60.4 73 74" stroke="#68BA7F" stroke-width="2" stroke-linecap="round" stroke-linejoin="round"/>
<circle cx="71" cy="53" r="3" stroke="#68BA7F" stroke-width="2" stroke-linecap="round" stroke-linejoin="round"/>
<circle cx="42" cy="53" r="3" stroke="#68BA7F" stroke-width="2" stroke-linecap="round" stroke-linejoin="round"/>
<line x1="30" y1="92" x2="71" y2="92" stroke="#68BA7F" stroke-width="2" stroke-linecap="round" stroke-linejoin="round"/>
<line x1="30" y1="108" x2="72" y2="108" stroke="#68BA7F" stroke-width="2" stroke-linecap="round" stroke-linejoin="round"/>
<line x1="30" y1="100" x2="78" y2="100" stroke="#68BA7F" stroke-width="2" stroke-linecap="round" stroke-linejoin="round"/>
<path d="M10.2734 153.625V165H7.92969L3.35938 157.375V165H1.01562V153.625H3.35938L7.9375 161.258V153.625H10.2734ZM11.8125 160.859V160.695C11.8125 160.076 11.901 159.505 12.0781 158.984C12.2552 158.458 12.513 158.003 12.8516 157.617C13.1901 157.232 13.6068 156.932 14.1016 156.719C14.5964 156.5 15.1641 156.391 15.8047 156.391C16.4453 156.391 17.0156 156.5 17.5156 156.719C18.0156 156.932 18.4349 157.232 18.7734 157.617C19.1172 158.003 19.3776 158.458 19.5547 158.984C19.7318 159.505 19.8203 160.076 19.8203 160.695V160.859C19.8203 161.474 19.7318 162.044 19.5547 162.57C19.3776 163.091 19.1172 163.547 18.7734 163.938C18.4349 164.323 18.0182 164.622 17.5234 164.836C17.0286 165.049 16.4609 165.156 15.8203 165.156C15.1797 165.156 14.6094 165.049 14.1094 164.836C13.6146 164.622 13.1953 164.323 12.8516 163.938C12.513 163.547 12.2552 163.091 12.0781 162.57C11.901 162.044 11.8125 161.474 11.8125 160.859ZM14.0625 160.695V160.859C14.0625 161.214 14.0938 161.544 14.1562 161.852C14.2188 162.159 14.3177 162.43 14.4531 162.664C14.5938 162.893 14.776 163.073 15 163.203C15.224 163.333 15.4974 163.398 15.8203 163.398C16.1328 163.398 16.401 163.333 16.625 163.203C16.849 163.073 17.0286 162.893 17.1641 162.664C17.2995 162.43 17.3984 162.159 17.4609 161.852C17.5286 161.544 17.5625 161.214 17.5625 160.859V160.695C17.5625 160.352 17.5286 160.029 17.4609 159.727C17.3984 159.419 17.2969 159.148 17.1562 158.914C17.0208 158.674 16.8411 158.487 16.6172 158.352C16.3932 158.216 16.1224 158.148 15.8047 158.148C15.487 158.148 15.2161 158.216 14.9922 158.352C14.7734 158.487 14.5938 158.674 14.4531 158.914C14.3177 159.148 14.2188 159.419 14.1562 159.727C14.0938 160.029 14.0625 160.352 14.0625 160.695ZM28.8203 165H26.3438L26.3594 163.172H28.8203C29.4349 163.172 29.9531 163.034 30.375 162.758C30.7969 162.477 31.1146 162.068 31.3281 161.531C31.5469 160.995 31.6562 160.346 31.6562 159.586V159.031C31.6562 158.448 31.5938 157.935 31.4688 157.492C31.349 157.049 31.1693 156.677 30.9297 156.375C30.6901 156.073 30.3958 155.846 30.0469 155.695C29.6979 155.539 29.2969 155.461 28.8438 155.461H26.2969V153.625H28.8438C29.6042 153.625 30.2995 153.755 30.9297 154.016C31.5651 154.271 32.1146 154.638 32.5781 155.117C33.0417 155.596 33.3984 156.169 33.6484 156.836C33.9036 157.497 34.0312 158.234 34.0312 159.047V159.586C34.0312 160.393 33.9036 161.13 33.6484 161.797C33.3984 162.464 33.0417 163.036 32.5781 163.516C32.1198 163.99 31.5703 164.357 30.9297 164.617C30.2943 164.872 29.5911 165 28.8203 165ZM27.6719 153.625V165H25.3281V153.625H27.6719ZM40.1562 163.094V159.328C40.1562 159.057 40.112 158.826 40.0234 158.633C39.9349 158.435 39.7969 158.281 39.6094 158.172C39.4271 158.062 39.1901 158.008 38.8984 158.008C38.6484 158.008 38.4323 158.052 38.25 158.141C38.0677 158.224 37.9271 158.346 37.8281 158.508C37.7292 158.664 37.6797 158.849 37.6797 159.062H35.4297C35.4297 158.703 35.513 158.362 35.6797 158.039C35.8464 157.716 36.0885 157.432 36.4062 157.188C36.724 156.938 37.1016 156.742 37.5391 156.602C37.9818 156.461 38.4766 156.391 39.0234 156.391C39.6797 156.391 40.263 156.5 40.7734 156.719C41.2839 156.938 41.6849 157.266 41.9766 157.703C42.2734 158.141 42.4219 158.688 42.4219 159.344V162.961C42.4219 163.424 42.4505 163.805 42.5078 164.102C42.5651 164.393 42.6484 164.648 42.7578 164.867V165H40.4844C40.375 164.771 40.2917 164.484 40.2344 164.141C40.1823 163.792 40.1562 163.443 40.1562 163.094ZM40.4531 159.852L40.4688 161.125H39.2109C38.9141 161.125 38.6562 161.159 38.4375 161.227C38.2188 161.294 38.0391 161.391 37.8984 161.516C37.7578 161.635 37.6536 161.776 37.5859 161.938C37.5234 162.099 37.4922 162.276 37.4922 162.469C37.4922 162.661 37.5365 162.836 37.625 162.992C37.7135 163.143 37.8411 163.263 38.0078 163.352C38.1745 163.435 38.3698 163.477 38.5938 163.477C38.9323 163.477 39.2266 163.409 39.4766 163.273C39.7266 163.138 39.9193 162.971 40.0547 162.773C40.1953 162.576 40.2682 162.388 40.2734 162.211L40.8672 163.164C40.7839 163.378 40.6693 163.599 40.5234 163.828C40.3828 164.057 40.2031 164.273 39.9844 164.477C39.7656 164.674 39.5026 164.839 39.1953 164.969C38.888 165.094 38.5234 165.156 38.1016 165.156C37.5651 165.156 37.0781 165.049 36.6406 164.836C36.2083 164.617 35.8646 164.318 35.6094 163.938C35.3594 163.552 35.2344 163.115 35.2344 162.625C35.2344 162.182 35.3177 161.789 35.4844 161.445C35.651 161.102 35.8958 160.812 36.2188 160.578C36.5469 160.339 36.9557 160.159 37.4453 160.039C37.9349 159.914 38.5026 159.852 39.1484 159.852H40.4531ZM48.2969 156.547V158.141H43.375V156.547H48.2969ZM44.5938 154.461H46.8438V162.453C46.8438 162.698 46.875 162.885 46.9375 163.016C47.0052 163.146 47.1042 163.237 47.2344 163.289C47.3646 163.336 47.5286 163.359 47.7266 163.359C47.8672 163.359 47.9922 163.354 48.1016 163.344C48.2161 163.328 48.3125 163.312 48.3906 163.297L48.3984 164.953C48.2057 165.016 47.9974 165.065 47.7734 165.102C47.5495 165.138 47.3021 165.156 47.0312 165.156C46.5365 165.156 46.1042 165.076 45.7344 164.914C45.3698 164.747 45.0885 164.482 44.8906 164.117C44.6927 163.753 44.5938 163.273 44.5938 162.68V154.461ZM54.1406 163.094V159.328C54.1406 159.057 54.0964 158.826 54.0078 158.633C53.9193 158.435 53.7812 158.281 53.5938 158.172C53.4115 158.062 53.1745 158.008 52.8828 158.008C52.6328 158.008 52.4167 158.052 52.2344 158.141C52.0521 158.224 51.9115 158.346 51.8125 158.508C51.7135 158.664 51.6641 158.849 51.6641 159.062H49.4141C49.4141 158.703 49.4974 158.362 49.6641 158.039C49.8307 157.716 50.0729 157.432 50.3906 157.188C50.7083 156.938 51.0859 156.742 51.5234 156.602C51.9661 156.461 52.4609 156.391 53.0078 156.391C53.6641 156.391 54.2474 156.5 54.7578 156.719C55.2682 156.938 55.6693 157.266 55.9609 157.703C56.2578 158.141 56.4062 158.688 56.4062 159.344V162.961C56.4062 163.424 56.4349 163.805 56.4922 164.102C56.5495 164.393 56.6328 164.648 56.7422 164.867V165H54.4688C54.3594 164.771 54.276 164.484 54.2188 164.141C54.1667 163.792 54.1406 163.443 54.1406 163.094ZM54.4375 159.852L54.4531 161.125H53.1953C52.8984 161.125 52.6406 161.159 52.4219 161.227C52.2031 161.294 52.0234 161.391 51.8828 161.516C51.7422 161.635 51.638 161.776 51.5703 161.938C51.5078 162.099 51.4766 162.276 51.4766 162.469C51.4766 162.661 51.5208 162.836 51.6094 162.992C51.6979 163.143 51.8255 163.263 51.9922 163.352C52.1589 163.435 52.3542 163.477 52.5781 163.477C52.9167 163.477 53.2109 163.409 53.4609 163.273C53.7109 163.138 53.9036 162.971 54.0391 162.773C54.1797 162.576 54.2526 162.388 54.2578 162.211L54.8516 163.164C54.7682 163.378 54.6536 163.599 54.5078 163.828C54.3672 164.057 54.1875 164.273 53.9688 164.477C53.75 164.674 53.487 164.839 53.1797 164.969C52.8724 165.094 52.5078 165.156 52.0859 165.156C51.5495 165.156 51.0625 165.049 50.625 164.836C50.1927 164.617 49.849 164.318 49.5938 163.938C49.3438 163.552 49.2188 163.115 49.2188 162.625C49.2188 162.182 49.3021 161.789 49.4688 161.445C49.6354 161.102 49.8802 160.812 50.2031 160.578C50.5312 160.339 50.9401 160.159 51.4297 160.039C51.9193 159.914 52.487 159.852 53.1328 159.852H54.4375ZM66.2656 156.547V158.141H61.3438V156.547H66.2656ZM62.5625 154.461H64.8125V162.453C64.8125 162.698 64.8438 162.885 64.9062 163.016C64.974 163.146 65.0729 163.237 65.2031 163.289C65.3333 163.336 65.4974 163.359 65.6953 163.359C65.8359 163.359 65.9609 163.354 66.0703 163.344C66.1849 163.328 66.2812 163.312 66.3594 163.297L66.3672 164.953C66.1745 165.016 65.9661 165.065 65.7422 165.102C65.5182 165.138 65.2708 165.156 65 165.156C64.5052 165.156 64.0729 165.076 63.7031 164.914C63.3385 164.747 63.0573 164.482 62.8594 164.117C62.6615 163.753 62.5625 163.273 62.5625 162.68V154.461ZM66.9844 160.859V160.695C66.9844 160.076 67.0729 159.505 67.25 158.984C67.4271 158.458 67.6849 158.003 68.0234 157.617C68.362 157.232 68.7786 156.932 69.2734 156.719C69.7682 156.5 70.3359 156.391 70.9766 156.391C71.6172 156.391 72.1875 156.5 72.6875 156.719C73.1875 156.932 73.6068 157.232 73.9453 157.617C74.2891 158.003 74.5495 158.458 74.7266 158.984C74.9036 159.505 74.9922 160.076 74.9922 160.695V160.859C74.9922 161.474 74.9036 162.044 74.7266 162.57C74.5495 163.091 74.2891 163.547 73.9453 163.938C73.6068 164.323 73.1901 164.622 72.6953 164.836C72.2005 165.049 71.6328 165.156 70.9922 165.156C70.3516 165.156 69.7812 165.049 69.2812 164.836C68.7865 164.622 68.3672 164.323 68.0234 163.938C67.6849 163.547 67.4271 163.091 67.25 162.57C67.0729 162.044 66.9844 161.474 66.9844 160.859ZM69.2344 160.695V160.859C69.2344 161.214 69.2656 161.544 69.3281 161.852C69.3906 162.159 69.4896 162.43 69.625 162.664C69.7656 162.893 69.9479 163.073 70.1719 163.203C70.3958 163.333 70.6693 163.398 70.9922 163.398C71.3047 163.398 71.5729 163.333 71.7969 163.203C72.0208 163.073 72.2005 162.893 72.3359 162.664C72.4714 162.43 72.5703 162.159 72.6328 161.852C72.7005 161.544 72.7344 161.214 72.7344 160.859V160.695C72.7344 160.352 72.7005 160.029 72.6328 159.727C72.5703 159.419 72.4688 159.148 72.3281 158.914C72.1927 158.674 72.013 158.487 71.7891 158.352C71.5651 158.216 71.2943 158.148 70.9766 158.148C70.6589 158.148 70.388 158.216 70.1641 158.352C69.9453 158.487 69.7656 158.674 69.625 158.914C69.4896 159.148 69.3906 159.419 69.3281 159.727C69.2656 160.029 69.2344 160.352 69.2344 160.695ZM86.4219 162.023C86.4219 161.82 86.3906 161.638 86.3281 161.477C86.2708 161.31 86.1615 161.159 86 161.023C85.8385 160.883 85.612 160.745 85.3203 160.609C85.0286 160.474 84.651 160.333 84.1875 160.188C83.6719 160.021 83.1823 159.833 82.7188 159.625C82.2604 159.417 81.8542 159.174 81.5 158.898C81.151 158.617 80.875 158.292 80.6719 157.922C80.474 157.552 80.375 157.122 80.375 156.633C80.375 156.159 80.4792 155.729 80.6875 155.344C80.8958 154.953 81.1875 154.62 81.5625 154.344C81.9375 154.062 82.3802 153.846 82.8906 153.695C83.4062 153.544 83.9714 153.469 84.5859 153.469C85.4245 153.469 86.1562 153.62 86.7812 153.922C87.4062 154.224 87.8906 154.638 88.2344 155.164C88.5833 155.69 88.7578 156.292 88.7578 156.969H86.4297C86.4297 156.635 86.3594 156.344 86.2188 156.094C86.0833 155.839 85.875 155.638 85.5938 155.492C85.3177 155.346 84.9688 155.273 84.5469 155.273C84.1406 155.273 83.8021 155.336 83.5312 155.461C83.2604 155.581 83.0573 155.745 82.9219 155.953C82.7865 156.156 82.7188 156.385 82.7188 156.641C82.7188 156.833 82.7656 157.008 82.8594 157.164C82.9583 157.32 83.1042 157.466 83.2969 157.602C83.4896 157.737 83.7266 157.865 84.0078 157.984C84.2891 158.104 84.6146 158.221 84.9844 158.336C85.6042 158.523 86.1484 158.734 86.6172 158.969C87.0911 159.203 87.487 159.466 87.8047 159.758C88.1224 160.049 88.362 160.38 88.5234 160.75C88.6849 161.12 88.7656 161.539 88.7656 162.008C88.7656 162.503 88.6693 162.945 88.4766 163.336C88.2839 163.727 88.0052 164.057 87.6406 164.328C87.276 164.599 86.8411 164.805 86.3359 164.945C85.8307 165.086 85.2656 165.156 84.6406 165.156C84.0781 165.156 83.5234 165.083 82.9766 164.938C82.4297 164.786 81.9323 164.56 81.4844 164.258C81.0417 163.956 80.6875 163.57 80.4219 163.102C80.1562 162.633 80.0234 162.078 80.0234 161.438H82.375C82.375 161.792 82.4297 162.091 82.5391 162.336C82.6484 162.581 82.8021 162.779 83 162.93C83.2031 163.081 83.4427 163.19 83.7188 163.258C84 163.326 84.3073 163.359 84.6406 163.359C85.0469 163.359 85.3802 163.302 85.6406 163.188C85.9062 163.073 86.1016 162.914 86.2266 162.711C86.3568 162.508 86.4219 162.279 86.4219 162.023ZM92.4141 153V165H90.1641V153H92.4141ZM92.0938 160.477H91.4766C91.4818 159.888 91.5599 159.346 91.7109 158.852C91.862 158.352 92.0781 157.919 92.3594 157.555C92.6406 157.185 92.9766 156.898 93.3672 156.695C93.763 156.492 94.2005 156.391 94.6797 156.391C95.0964 156.391 95.474 156.451 95.8125 156.57C96.1562 156.685 96.4505 156.872 96.6953 157.133C96.9453 157.388 97.138 157.724 97.2734 158.141C97.4089 158.557 97.4766 159.062 97.4766 159.656V165H95.2109V159.641C95.2109 159.266 95.1562 158.971 95.0469 158.758C94.9427 158.539 94.7891 158.385 94.5859 158.297C94.388 158.203 94.1432 158.156 93.8516 158.156C93.5286 158.156 93.2526 158.216 93.0234 158.336C92.7995 158.456 92.6198 158.622 92.4844 158.836C92.349 159.044 92.25 159.289 92.1875 159.57C92.125 159.852 92.0938 160.154 92.0938 160.477ZM98.8281 160.859V160.695C98.8281 160.076 98.9167 159.505 99.0938 158.984C99.2708 158.458 99.5286 158.003 99.8672 157.617C100.206 157.232 100.622 156.932 101.117 156.719C101.612 156.5 102.18 156.391 102.82 156.391C103.461 156.391 104.031 156.5 104.531 156.719C105.031 156.932 105.451 157.232 105.789 157.617C106.133 158.003 106.393 158.458 106.57 158.984C106.747 159.505 106.836 160.076 106.836 160.695V160.859C106.836 161.474 106.747 162.044 106.57 162.57C106.393 163.091 106.133 163.547 105.789 163.938C105.451 164.323 105.034 164.622 104.539 164.836C104.044 165.049 103.477 165.156 102.836 165.156C102.195 165.156 101.625 165.049 101.125 164.836C100.63 164.622 100.211 164.323 99.8672 163.938C99.5286 163.547 99.2708 163.091 99.0938 162.57C98.9167 162.044 98.8281 161.474 98.8281 160.859ZM101.078 160.695V160.859C101.078 161.214 101.109 161.544 101.172 161.852C101.234 162.159 101.333 162.43 101.469 162.664C101.609 162.893 101.792 163.073 102.016 163.203C102.24 163.333 102.513 163.398 102.836 163.398C103.148 163.398 103.417 163.333 103.641 163.203C103.865 163.073 104.044 162.893 104.18 162.664C104.315 162.43 104.414 162.159 104.477 161.852C104.544 161.544 104.578 161.214 104.578 160.859V160.695C104.578 160.352 104.544 160.029 104.477 159.727C104.414 159.419 104.312 159.148 104.172 158.914C104.036 158.674 103.857 158.487 103.633 158.352C103.409 158.216 103.138 158.148 102.82 158.148C102.503 158.148 102.232 158.216 102.008 158.352C101.789 158.487 101.609 158.674 101.469 158.914C101.333 159.148 101.234 159.419 101.172 159.727C101.109 160.029 101.078 160.352 101.078 160.695ZM110.633 162.812L112.391 156.547H113.82L113.359 159.008L111.602 165H110.406L110.633 162.812ZM109.742 156.547L111 162.805L111.117 165H109.711L107.57 156.547H109.742ZM115.43 162.703L116.656 156.547H118.836L116.695 165H115.297L115.43 162.703ZM114.016 156.547L115.766 162.766L116.008 165H114.805L113.047 159.016L112.602 156.547H114.016Z" fill="#68BA7F"/>
</svg>
