<svg width="110" height="33" viewBox="0 0 110 33" fill="none" xmlns="http://www.w3.org/2000/svg">
<g id="Group 427318814">
<g id="LOGO option 01">
<g id="credit">
<path d="M14.5008 22.6641C13.8491 27.0958 11.1444 28.888 7.62513 28.888C3.51927 28.888 0.977539 26.5744 0.977539 22.6967C0.977539 22.1101 1.01013 21.5236 1.10788 20.9696L1.56409 18.0042C2.28099 13.4096 5.31151 11.2589 8.96117 11.2589C12.5782 11.2589 15.0222 13.0837 15.0548 17.0918H11.731C11.6984 14.9086 10.5579 14.0287 8.83082 14.0287C6.7453 14.0287 5.50703 15.3322 5.05082 18.1998L4.56202 21.2303C4.49685 21.7517 4.43168 22.2405 4.43168 22.6967C4.43168 24.9451 5.66996 26.1834 7.75548 26.1834C9.38479 26.1834 10.8512 25.4013 11.2422 22.6641H14.5008Z" fill="#003399"/>
<path d="M21.9427 14.5501C23.181 12.3017 24.9081 11.3241 27.4172 11.3567L26.8958 14.6804C23.6698 14.6479 21.9101 15.7884 21.4213 18.8515L19.8898 28.5948H16.403L18.4234 15.9513C18.6189 14.6479 18.8144 12.823 18.847 11.5522H22.2034C22.2034 12.2039 22.1382 13.4748 21.9427 14.5501Z" fill="#003399"/>
<path d="M41.1999 23.6091C40.5156 27.2913 37.8109 28.888 34.2916 28.888C30.3161 28.888 27.644 26.5092 27.644 23.0225C27.644 22.0449 27.7092 21.491 27.807 20.9044L28.2306 18.102C28.9475 13.6703 31.7499 11.2589 35.7906 11.2589C39.9616 11.2589 42.6337 13.7029 41.819 18.8841L41.5258 20.8067H31.2937L31.2285 21.1651C31.1307 21.6865 31.0982 22.1753 31.0982 23.0225C31.1308 24.9777 32.3364 26.216 34.4871 26.216C36.2794 26.216 37.4525 25.4339 37.8435 23.6091H41.1999ZM31.7173 18.1998L31.6847 18.3953H38.5278L38.5604 18.1998C39.0818 15.1041 37.8761 13.8658 35.7254 13.8658C33.7051 13.8658 32.2387 15.0063 31.7173 18.1998Z" fill="#003399"/>
<path d="M54.2041 26.0856C53.1287 27.8779 51.532 28.888 49.3813 28.888C46.0575 28.888 43.8417 26.7048 43.8417 23.2506C43.8417 22.436 43.9068 21.8168 44.0046 21.1325L44.526 17.9391C45.2103 13.5073 47.8172 11.2589 51.2387 11.2589C54.0737 11.2589 55.4424 12.6927 55.9637 14.0287L57.5605 3.86182H61.0472L57.8212 24.163C57.6256 25.4991 57.4301 27.3239 57.3975 28.5948H54.0086C54.0086 27.943 54.0737 26.7699 54.2041 26.0856ZM55.2143 19.1448C55.312 18.493 55.4098 18.0368 55.4098 17.3851C55.4098 15.267 54.0737 13.9635 51.8905 13.9635C49.805 13.9635 48.4689 15.1692 47.9801 18.2323L47.4587 21.4584C47.3936 21.9472 47.3284 22.4686 47.3284 22.8596C47.3284 25.1406 48.697 26.1182 50.4893 26.1182C52.7051 26.1182 54.367 24.5867 54.7581 22.0123L55.2143 19.1448Z" fill="#003399"/>
<path d="M66.1986 8.91268C64.9929 8.91268 64.1131 8.03286 64.1131 6.89234C64.1131 5.71923 65.0581 4.80682 66.2312 4.80682C67.4043 4.80682 68.2841 5.71923 68.2841 6.85975C68.2841 8.03286 67.4043 8.91268 66.1986 8.91268ZM61.1152 28.5948L63.8198 11.5522H67.3066L64.6019 28.5948H61.1152Z" fill="#003399"/>
<path d="M72.5349 7.9351H76.0542L75.4676 11.5522H78.7262L78.3026 14.2242H75.044L73.545 23.7068C73.3169 25.271 73.8709 25.9879 75.0114 25.9879C75.6957 25.9879 76.2171 25.8575 76.5756 25.7272L76.1519 28.497C75.7935 28.6274 75.1418 28.8229 74.2619 28.8229C71.0033 28.8229 69.5043 26.998 70.0257 23.7068L71.5247 14.2242H69.5369L69.9605 11.5522H71.9483L72.5349 7.9351Z" fill="#003399"/>
</g>
</g>
<g id="Group 427318737">
<g id="Group 427318811">
<g id="Group 427318780">
<path id="Vector" d="M109.107 30.5692C109.192 29.968 108.98 29.3987 108.592 28.9934L108.597 28.9932L98.5638 18.9277L95.6665 21.4753C98.8254 24.6368 103.466 29.2945 105.993 31.8227L106.004 31.8323C106.235 32.0149 106.598 32.1592 106.946 32.2118C107.983 32.3598 108.959 31.6009 109.106 30.5641L109.107 30.5692Z" fill="url(#paint0_linear_2004_114)"/>
<path id="Vector_2" d="M98.2653 24.0974C97.4548 21.6433 98.3557 19.6286 99.1117 18.8922C100.009 18.0194 100.819 17.2286 101.488 16.5845C103.814 14.3207 101.74 10.9548 101.74 10.9548L95.0469 17.468C95.0469 17.468 94.2885 18.0708 94.4317 19.441C94.5221 20.3256 95.4969 21.2998 95.4969 21.2998L98.2755 24.0968L98.2653 24.0974Z" fill="#E34234"/>
</g>
<g id="Group 427318778">
<path id="Vector_3" d="M77.7977 2.43982C77.7147 3.04133 77.928 3.61003 78.3169 4.01414L78.3117 4.01444L88.3741 14.051L91.2641 11.4951C88.0961 8.34269 83.4418 3.69836 80.9075 1.17745L80.8966 1.1678C80.6648 0.98594 80.3015 0.842642 79.9539 0.791008C78.9167 0.646057 77.943 1.40777 77.798 2.44495L77.7977 2.43982Z" fill="#1173AB"/>
<path id="Vector_4" d="M88.6574 8.88047C89.4748 11.3323 88.5798 13.3495 87.8259 14.088C86.9308 14.9634 86.1235 15.7566 85.4567 16.4026C83.1363 18.6731 85.2209 22.033 85.2209 22.033L91.8948 15.5006C91.8948 15.5006 92.6514 14.8956 92.5043 13.5258C92.4113 12.6415 91.4337 11.6701 91.4337 11.6701L88.6471 8.88107L88.6574 8.88047Z" fill="#28B1FF"/>
</g>
<g id="Group 427318809">
<path id="Vector_5" d="M79.5007 32.3029C80.1028 32.3815 80.6699 32.1639 81.0712 31.7721L81.0763 31.7718L91.0335 21.641L88.4563 18.77C85.3219 21.9564 80.7176 26.6497 78.2103 29.2028L78.2007 29.2137C78.0206 29.4469 77.88 29.8112 77.8309 30.1592C77.6936 31.1975 78.4625 32.1656 79.5007 32.3029Z" fill="url(#paint1_linear_2004_114)"/>
<path id="Vector_6" d="M85.8618 21.3961C88.3075 20.5605 90.3313 21.4406 91.0754 22.1891C91.9574 23.0777 92.7564 23.8792 93.4073 24.5412C95.6949 26.8447 99.0393 24.7354 99.0393 24.7354L92.4579 18.1099C92.4579 18.1099 91.8473 17.3577 90.4786 17.515C89.595 17.6145 88.6308 18.5992 88.6308 18.5992L85.8625 21.4063L85.8618 21.3961Z" fill="#2E74FF"/>
</g>
<g id="Group 427318779">
<path id="Vector_7" d="M107.506 0.61466C106.904 0.536794 106.337 0.755033 105.936 1.14736L105.931 1.14771L95.9863 11.2906L98.567 14.1585C101.692 10.9635 106.296 6.26936 108.795 3.71346L108.805 3.70253C108.985 3.46915 109.125 3.10464 109.173 2.75657C109.309 1.71818 108.539 0.751021 107.501 0.615004L107.506 0.61466Z" fill="url(#paint2_linear_2004_114)"/>
<path id="Vector_8" d="M101.159 11.5294C98.7144 12.368 96.6896 11.4903 95.9445 10.7428C95.0615 9.85527 94.2614 9.0548 93.6097 8.3936C91.3193 6.0929 87.9775 8.20629 87.9775 8.20629L94.5671 14.8237C94.5671 14.8237 95.1785 15.5751 96.547 15.4162C97.4305 15.3156 98.3935 14.3297 98.3935 14.3297L101.158 11.5192L101.159 11.5294Z" fill="#22BB33"/>
</g>
</g>
</g>
</g>
<defs>
<linearGradient id="paint0_linear_2004_114" x1="105.103" y1="28.6067" x2="96.3103" y2="15.4636" gradientUnits="userSpaceOnUse">
<stop stop-color="#87160C"/>
<stop offset="1" stop-color="#E34234"/>
</linearGradient>
<linearGradient id="paint1_linear_2004_114" x1="82.849" y1="27.7355" x2="88.841" y2="21.7694" gradientUnits="userSpaceOnUse">
<stop stop-color="#003399"/>
<stop offset="1" stop-color="#082257"/>
</linearGradient>
<linearGradient id="paint2_linear_2004_114" x1="105.526" y1="10.1663" x2="99.2208" y2="1.16149" gradientUnits="userSpaceOnUse">
<stop stop-color="#22BB33"/>
<stop offset="1" stop-color="#0B6716"/>
</linearGradient>
</defs>
</svg>
